# xmcd
#
# Track frame offsets: 
#        150
#        20844
#        57239
#        77792
#        99224
#        122964
#        151965
#        181384
#        201174
#
# Disc length: 3227 seconds
#
# Revision: 2
# Processed by: cddbd v1.5.2PL0 Copyright (c) Steve Scherf et al.
# Submitted via: ExactAudioCopyFreeDBPlugin 1.0
#
DISCID=730c9909
DTITLE=Bill Paul - 1972 - 360 Degrees Of Billy Paul
DYEAR=1972
DGENRE=Soul
TTITLE0=Brown Baby
TTITLE1=I'm Just A Prisoner
TTITLE2=It's Too Late
TTITLE3=Me And Mrs. Jones
TTITLE4=Am I Black Enough For You
TTITLE5=Let's Stay Together
TTITLE6=Your Song
TTITLE7=I'm Gonna Make It This Time
TTITLE8=Me And Mrs. Jones (live in London 12-73)
EXTD=
EXTT0=
EXTT1=
EXTT2=
EXTT3=
EXTT4=
EXTT5=
EXTT6=
EXTT7=
EXTT8=
PLAYORDER=
